ply
format ascii 1.0
comment VCGLIB generated
element vertex 21
property float x
property float y
property float z
property float nx
property float ny
property float nz
element face 30
property list uchar int vertex_indices
end_header
-5.38860 -4.04145 -7 0 0 1 
5.38860 -4.04145 -7 0 0 1 
5.38860 4.04145 -7 0 0 1 
-5.38860 4.04145 -7 0 0 1 
-0.05 -0.04905 0.068099 -0.472865 -0.788108 0.394061 
-0.05 -0.01905 0.068099 -0.132972 0.886482 0.443248 
-0.05 -0.04905 0.0081 -0.132972 -0.886482 -0.443248 
-0.05 -0.01905 0.0081 -0.472865 0.788108 -0.394061 
0.05 -0.01905 0.0081 0.132972 0.886482 -0.443248 
0.05 -0.04905 0.0081 0.472865 -0.788108 -0.394061 
0.05 -0.04905 0.068099 0.132972 -0.886482 0.443248 
0.05 -0.01905 0.068099 0.472865 0.788108 0.394061 
-0.1397 -0.01905 0.0762 -0.236986 -0.86895 0.434469 
-0.1397 0.01905 0.0762 -0.0608707 0.892771 0.44638 
0.1397 0.01905 0.0762 0.236986 0.86895 0.434469 
0.1397 0.01905 -1e-006 0.0608707 0.892771 -0.44638 
0.1397 -0.01905 0.0762 0.0608707 -0.892771 0.44638 
-0.1397 -0.01905 -1e-006 -0.0608707 -0.892771 -0.44638 
-0.1397 0.01905 -1e-006 -0.236986 0.86895 -0.434469 
0.1397 -0.01905 -1e-006 0.236986 -0.86895 -0.434469 
0.0000 0.0000 0.0000 0.0000 1.0000 0.0000
3 0 1 20
3 1 2 20
3 2 3 20
3 3 0 20
3 1 0 2 
3 2 0 3 
3 4 5 7 
3 4 7 6 
3 5 11 8 
3 5 8 7 
3 11 10 9 
3 11 9 8 
3 10 4 6 
3 10 6 9 
3 6 7 8 
3 6 8 9 
3 10 11 5 
3 10 5 4 
3 12 13 18 
3 12 18 17 
3 13 14 15 
3 13 15 18 
3 14 16 19 
3 14 19 15 
3 16 12 17 
3 16 17 19 
3 17 18 15 
3 17 15 19 
3 16 14 13 
3 16 13 12 
