ply
format ascii 1.0
comment VCGLIB generated
element vertex 64
property float x
property float y
property float z
property float nx
property float ny
property float nz
element face 124
property list uchar int vertex_indices
end_header
-0.5 1.2 0.05 0.0328212 0.00320154 0.999456 
-0.5 1 0.05 -0.0328223 -0.00320165 0.999456 
-0.490245 1 0.049039 0.16273 -0.0312562 0.986175 
-0.490245 1.2 0.049039 0.227053 0.0312575 0.973381 
-0.480866 1.2 0.046194 0.411045 0.0922259 0.906938 
-0.464645 1.2 0.035355 0.703944 0.264397 0.659209 
-0.458427 1 0.027779 0.763085 -0.344298 0.546956 
-0.458427 1.2 0.027779 0.797326 0.344282 0.495723 
-0.453806 1 0.019134 0.833245 -0.40384 0.377646 
-0.450961 1 0.009755 0.875525 -0.437889 0.204228 
-0.45 1 -0 0.895191 -0.444713 0.0293963 
-0.450961 1 -0.009755 0.89348 -0.424213 -0.147435 
-0.453806 1.2 -0.019134 0.843597 0.377042 -0.382338 
-0.453806 1 -0.019134 0.866854 -0.377059 -0.326175 
-0.458427 1 -0.027779 0.808415 -0.306335 -0.502617 
-0.458427 1.2 -0.027779 0.773698 0.30635 -0.554564 
-0.464645 1.2 -0.035355 0.666781 0.220045 -0.712027 
-0.464645 1 -0.035355 0.712029 -0.220045 -0.66678 
-0.472221 1.2 -0.041573 0.523391 0.131868 -0.841827 
-0.472221 1 -0.041573 0.577487 -0.131875 -0.805678 
-0.480866 1 -0.046194 0.412105 -0.0581684 -0.909278 
-0.480866 1.2 -0.046194 0.351571 0.0581714 -0.934352 
-0.490245 1.2 -0.049039 0.162796 0.0126793 -0.986578 
-0.490245 1 -0.049039 0.227145 -0.0126798 -0.973778 
-0.509755 1 -0.049039 -0.16273 -0.0312569 -0.986175 
-0.509755 1.2 -0.049039 -0.227053 0.0312582 -0.973381 
-0.549039 1.2 -0.009754 -0.887035 0.437886 -0.146375 
-0.55 1.2 0 -0.895185 0.444725 0.0293971 
-0.549039 1.2 0.009755 -0.881887 0.424215 0.20571 
-0.546194 1 0.019134 -0.86685 -0.37707 0.326172 
-0.546194 1.2 0.019134 -0.843593 0.377053 0.382337 
-0.541573 1 0.027779 -0.808418 -0.30632 0.502622 
-0.541573 1.2 0.027779 -0.773701 0.306335 0.554568 
-0.535355 1 0.035355 -0.712028 -0.220043 0.666781 
-0.535355 1.2 0.035355 -0.666786 0.220034 0.712026 
-0.527778 1 0.041574 -0.577495 -0.13187 0.805674 
-0.527778 1.2 0.041574 -0.523381 0.131875 0.841832 
-0.519134 1 0.046194 -0.412061 -0.0581648 0.909298 
-0.519134 1.2 0.046194 -0.35153 0.0581633 0.934368 
-0.480866 1 0.046194 0.350666 -0.0922306 0.931948 
-0.472221 1 0.041573 0.519838 -0.17517 0.836112 
-0.464645 1 0.035355 0.659211 -0.264397 0.703943 
-0.549039 1 0.009755 -0.893486 -0.424201 0.147435 
-0.55 1 0 -0.895179 -0.444737 -0.0293979 
-0.549039 1 -0.009754 -0.875533 -0.437877 -0.204221 
-0.546194 1 -0.019134 -0.833255 -0.40386 -0.377602 
-0.541574 1 -0.027778 -0.763083 -0.344284 -0.546967 
-0.535355 1 -0.035355 -0.659211 -0.264398 -0.703942 
-0.527779 1 -0.041573 -0.519839 -0.175163 -0.836113 
-0.519134 1 -0.046194 -0.350667 -0.0922396 -0.931947 
-0.5 1 -0.05 0.0328201 -0.0032016 -0.999456 
-0.509754 1.2 0.049039 -0.162802 0.0126791 0.986577 
-0.509754 1 0.049039 -0.227138 -0.0126788 0.97378 
-0.5 1.2 -0.05 -0.0328201 0.0032016 -0.999456 
-0.519134 1.2 -0.046194 -0.411045 0.0922347 -0.906937 
-0.527779 1.2 -0.041573 -0.573567 0.175172 -0.80021 
-0.535355 1.2 -0.035355 -0.703943 0.264386 -0.659215 
-0.541574 1.2 -0.027778 -0.797326 0.344296 -0.495713 
-0.546194 1.2 -0.019134 -0.856233 0.403851 -0.322134 
-0.450961 1.2 -0.009755 0.881881 0.424228 -0.205711 
-0.45 1.2 0 0.895191 0.444713 -0.0293963 
-0.450961 1.2 0.009755 0.887041 0.437874 0.146372 
-0.453806 1.2 0.019134 0.856215 0.403857 0.322172 
-0.472221 1.2 0.041573 0.573567 0.175179 0.800208 
3 0 1 2 
3 0 2 3 
3 3 2 39 
3 3 39 4 
3 4 39 40 
3 4 40 63 
3 63 40 41 
3 63 41 5 
3 5 41 6 
3 5 6 7 
3 7 6 8 
3 7 8 62 
3 62 8 9 
3 62 9 61 
3 61 9 10 
3 61 10 60 
3 60 10 11 
3 60 11 59 
3 59 11 13 
3 59 13 12 
3 12 13 14 
3 12 14 15 
3 15 14 17 
3 15 17 16 
3 16 17 19 
3 16 19 18 
3 18 19 20 
3 18 20 21 
3 21 20 23 
3 21 23 22 
3 22 23 50 
3 22 50 53 
3 53 50 24 
3 53 24 25 
3 25 24 49 
3 25 49 54 
3 54 49 48 
3 54 48 55 
3 55 48 47 
3 55 47 56 
3 56 47 46 
3 56 46 57 
3 57 46 45 
3 57 45 58 
3 58 45 44 
3 58 44 26 
3 26 44 43 
3 26 43 27 
3 27 43 42 
3 27 42 28 
3 28 42 29 
3 28 29 30 
3 30 29 31 
3 30 31 32 
3 32 31 33 
3 32 33 34 
3 34 33 35 
3 34 35 36 
3 36 35 37 
3 36 37 38 
3 2 1 52 
3 2 52 37 
3 2 37 39 
3 37 35 39 
3 35 40 39 
3 35 33 40 
3 33 41 40 
3 33 31 41 
3 31 6 41 
3 31 29 6 
3 29 8 6 
3 29 42 8 
3 42 9 8 
3 42 43 9 
3 43 10 9 
3 43 44 10 
3 44 11 10 
3 44 45 11 
3 45 13 11 
3 45 46 13 
3 46 14 13 
3 46 47 14 
3 47 17 14 
3 47 48 17 
3 48 19 17 
3 48 49 19 
3 49 20 19 
3 49 24 20 
3 24 23 20 
3 24 50 23 
3 1 0 51 
3 1 51 52 
3 38 37 52 
3 38 52 51 
3 22 53 25 
3 21 22 25 
3 21 25 54 
3 18 21 54 
3 18 54 55 
3 16 18 55 
3 16 55 56 
3 15 16 56 
3 15 56 57 
3 12 15 57 
3 12 57 58 
3 59 12 58 
3 59 58 26 
3 60 59 26 
3 60 26 27 
3 61 60 27 
3 61 27 28 
3 62 61 28 
3 62 28 30 
3 7 62 30 
3 7 30 32 
3 5 7 32 
3 5 32 34 
3 63 5 34 
3 63 34 36 
3 4 63 36 
3 4 36 38 
3 3 4 38 
3 3 38 51 
3 0 3 51 
