ply
format ascii 1.0
comment VCGLIB generated
element vertex 36
property float x
property float y
property float z
property uchar red
property uchar green
property uchar blue
property uchar alpha
element face 60
property list uchar int vertex_indices
end_header
-1 0.9 0.5 73 255 57 255 
-1 1 0.5 73 255 57 255 
1 1 0.5 73 255 57 255 
1 0.9 0.5 73 255 57 255 
-1 0.9 -0.5 73 255 57 255 
-1 1 -0.5 73 255 57 255 
1 0.9 -0.5 73 255 57 255 
-1 1 -0.4 73 255 57 255 
-0.9 0 -0.4 73 255 57 255 
-0.9 1 -0.5 73 255 57 255 
-1 0 -0.4 73 255 57 255 
-1 0 -0.5 73 255 57 255 
-0.9 0 -0.5 73 255 57 255 
-0.9 1 -0.4 73 255 57 255 
0.9 0 -0.5 73 255 57 255 
1 1 -0.5 73 255 57 255 
0.9 1 -0.5 73 255 57 255 
1 1 -0.4 73 255 57 255 
0.9 0 -0.4 73 255 57 255 
1 0 -0.5 73 255 57 255 
1 0 -0.4 73 255 57 255 
0.9 1 -0.4 73 255 57 255 
-1 1 0.4 73 255 57 255 
-0.9 0 0.5 73 255 57 255 
-1 0 0.4 73 255 57 255 
-0.9 1 0.4 73 255 57 255 
-0.9 0 0.4 73 255 57 255 
-0.9 1 0.5 73 255 57 255 
-1 0 0.5 73 255 57 255 
0.9 0 0.5 73 255 57 255 
0.9 1 0.4 73 255 57 255 
0.9 1 0.5 73 255 57 255 
1 1 0.4 73 255 57 255 
1 0 0.5 73 255 57 255 
0.9 0 0.4 73 255 57 255 
1 0 0.4 73 255 57 255 
3 5 4 0 
3 5 0 1 
3 1 2 15 
3 1 15 5 
3 2 3 6 
3 2 6 15 
3 4 6 3 
3 4 3 0 
3 4 5 15 
3 4 15 6 
3 3 2 1 
3 3 1 0 
3 10 7 5 
3 10 5 11 
3 7 13 9 
3 7 9 5 
3 13 8 12 
3 13 12 9 
3 8 10 11 
3 8 11 12 
3 11 5 9 
3 11 9 12 
3 8 13 7 
3 8 7 10 
3 18 21 16 
3 18 16 14 
3 21 17 15 
3 21 15 16 
3 17 20 19 
3 17 19 15 
3 20 18 14 
3 20 14 19 
3 14 16 15 
3 14 15 19 
3 20 17 21 
3 20 21 18 
3 28 1 22 
3 28 22 24 
3 1 27 25 
3 1 25 22 
3 27 23 26 
3 27 26 25 
3 23 28 24 
3 23 24 26 
3 24 22 25 
3 24 25 26 
3 23 27 1 
3 23 1 28 
3 29 31 30 
3 29 30 34 
3 31 2 32 
3 31 32 30 
3 2 33 35 
3 2 35 32 
3 33 29 34 
3 33 34 35 
3 34 30 32 
3 34 32 35 
3 33 2 31 
3 33 31 29 
